<svg xmlns="http://www.w3.org/2000/svg" width="1120" height="640" viewBox="0 0 1120 640" font-family="Inter, 'Source Sans 3', 'IBM Plex Sans', system-ui, sans-serif">
<rect width="1120" height="640" fill="#F7F4EE"/>
<text x="40" y="52" font-size="32" font-weight="600" fill="#1B2838">HNSW: a layered graph for fast search</text>
<text x="40" y="82" font-size="17" fill="#5C6B7A">Few long jumps on top, many short hops below. Greedy walk descends to the answer.</text>
<line x1="40" y1="100" x2="1080" y2="100" stroke="#D9D3C7" stroke-width="1.5"/>
<text x="40" y="616" font-size="14" fill="#5C6B7A">Project: Stanford Frontier AI. Source: original</text>
<text x="40" y="132" font-size="14" font-weight="600" fill="#5C6B7A" text-anchor="start">LAYER 2 (top): few nodes, long links</text>
<circle cx="80" cy="200" r="26" fill="#FFFDF8" stroke="#D9D3C7" stroke-width="1.5"/>
<text x="80" y="206" font-size="14" font-weight="450" fill="#1B2838" text-anchor="middle" font-family="'IBM Plex Mono', ui-monospace, monospace">n0</text>
<circle cx="320" cy="200" r="26" fill="#FFFDF8" stroke="#D9D3C7" stroke-width="1.5"/>
<text x="320" y="206" font-size="14" font-weight="450" fill="#1B2838" text-anchor="middle" font-family="'IBM Plex Mono', ui-monospace, monospace">n4</text>
<circle cx="560" cy="200" r="26" fill="#FFFDF8" stroke="#D9D3C7" stroke-width="1.5"/>
<text x="560" y="206" font-size="14" font-weight="450" fill="#1B2838" text-anchor="middle" font-family="'IBM Plex Mono', ui-monospace, monospace">n8</text>
<circle cx="800" cy="200" r="26" fill="#FFFDF8" stroke="#D9D3C7" stroke-width="1.5"/>
<text x="800" y="206" font-size="14" font-weight="450" fill="#1B2838" text-anchor="middle" font-family="'IBM Plex Mono', ui-monospace, monospace">n12</text>
<line x1="106" y1="200" x2="294" y2="200" stroke="#1E4D8C" stroke-width="1.5" fill="none"/>
<line x1="294" y1="200" x2="283" y2="196" stroke="#1E4D8C" stroke-width="1.5"/>
<line x1="294" y1="200" x2="283" y2="204" stroke="#1E4D8C" stroke-width="1.5"/>
<line x1="346" y1="200" x2="534" y2="200" stroke="#1E4D8C" stroke-width="1.5" fill="none"/>
<line x1="534" y1="200" x2="523" y2="196" stroke="#1E4D8C" stroke-width="1.5"/>
<line x1="534" y1="200" x2="523" y2="204" stroke="#1E4D8C" stroke-width="1.5"/>
<line x1="586" y1="200" x2="774" y2="200" stroke="#1E4D8C" stroke-width="1.5" fill="none"/>
<line x1="774" y1="200" x2="763" y2="196" stroke="#1E4D8C" stroke-width="1.5"/>
<line x1="774" y1="200" x2="763" y2="204" stroke="#1E4D8C" stroke-width="1.5"/>
<line x1="106" y1="200" x2="534" y2="200" stroke="#1E4D8C" stroke-width="1.5" fill="none"/>
<line x1="534" y1="200" x2="523" y2="196" stroke="#1E4D8C" stroke-width="1.5"/>
<line x1="534" y1="200" x2="523" y2="204" stroke="#1E4D8C" stroke-width="1.5"/>
<text x="40" y="300" font-size="14" font-weight="600" fill="#5C6B7A" text-anchor="start">LAYER 0 (bottom): every vector, short links</text>
<circle cx="78" cy="385" r="16" fill="#E7F1F8" stroke="#D9D3C7" stroke-width="1.5"/>
<circle cx="153" cy="417" r="16" fill="#E7F1F8" stroke="#D9D3C7" stroke-width="1.5"/>
<circle cx="215" cy="380" r="16" fill="#E7F1F8" stroke="#D9D3C7" stroke-width="1.5"/>
<circle cx="304" cy="382" r="16" fill="#E7F1F8" stroke="#D9D3C7" stroke-width="1.5"/>
<circle cx="371" cy="413" r="16" fill="#E7F1F8" stroke="#D9D3C7" stroke-width="1.5"/>
<circle cx="434" cy="408" r="16" fill="#E7F1F8" stroke="#D9D3C7" stroke-width="1.5"/>
<circle cx="512" cy="378" r="16" fill="#E7F1F8" stroke="#D9D3C7" stroke-width="1.5"/>
<circle cx="581" cy="403" r="16" fill="#E7F1F8" stroke="#D9D3C7" stroke-width="1.5"/>
<circle cx="665" cy="380" r="16" fill="#E7F1F8" stroke="#D9D3C7" stroke-width="1.5"/>
<circle cx="732" cy="381" r="16" fill="#E7F1F8" stroke="#D9D3C7" stroke-width="1.5"/>
<circle cx="815" cy="403" r="16" fill="#E7F1F8" stroke="#D9D3C7" stroke-width="1.5"/>
<circle cx="872" cy="412" r="16" fill="#E7F1F8" stroke="#D9D3C7" stroke-width="1.5"/>
<line x1="78" y1="385" x2="153" y2="417" stroke="#1E4D8C" stroke-width="1.5"/>
<line x1="153" y1="417" x2="215" y2="380" stroke="#1E4D8C" stroke-width="1.5"/>
<line x1="215" y1="380" x2="304" y2="382" stroke="#1E4D8C" stroke-width="1.5"/>
<line x1="304" y1="382" x2="371" y2="413" stroke="#1E4D8C" stroke-width="1.5"/>
<line x1="371" y1="413" x2="434" y2="408" stroke="#1E4D8C" stroke-width="1.5"/>
<line x1="434" y1="408" x2="512" y2="378" stroke="#1E4D8C" stroke-width="1.5"/>
<line x1="512" y1="378" x2="581" y2="403" stroke="#1E4D8C" stroke-width="1.5"/>
<line x1="581" y1="403" x2="665" y2="380" stroke="#1E4D8C" stroke-width="1.5"/>
<line x1="665" y1="380" x2="732" y2="381" stroke="#1E4D8C" stroke-width="1.5"/>
<line x1="732" y1="381" x2="815" y2="403" stroke="#1E4D8C" stroke-width="1.5"/>
<line x1="815" y1="403" x2="872" y2="412" stroke="#1E4D8C" stroke-width="1.5"/>
<text x="920" y="410" font-size="14" font-weight="600" fill="#1B2838" text-anchor="start">query</text>
<circle cx="960" cy="440" r="16" fill="#C46B2C" stroke="#C46B2C" stroke-width="1.5"/>
<text x="960" y="446" font-size="14" font-weight="600" fill="#FFFFFF" text-anchor="middle">q</text>
<line x1="560" y1="226" x2="581" y2="387" stroke="#1F7A72" stroke-width="1.5" fill="none" stroke-dasharray="6 4"/>
<line x1="581" y1="387" x2="573" y2="377" stroke="#1F7A72" stroke-width="1.5"/>
<line x1="581" y1="387" x2="569" y2="381" stroke="#1F7A72" stroke-width="1.5"/>
<text x="618" y="310" font-size="13" fill="#1F7A72" text-anchor="middle">descend</text>
<text x="40" y="540" font-size="15" font-weight="600" fill="#1B2838" text-anchor="start">Search: enter at the top, greedy-hop toward the query, drop a layer when stuck.</text>
<text x="40" y="564" font-size="14" font-weight="450" fill="#5C6B7A" text-anchor="start">About log N hops for N vectors. The price is a little recall: the true nearest neighbor can hide.</text>
</svg>